<?xml version="1.0" encoding="iso-8859-1"?>
<!-- Generator: Adobe Illustrator 19.0.0, SVG Export Plug-In . SVG Version: 6.00 Build 0)  -->
<svg version="1.1" id="Capa_1" xmlns="http://www.w3.org/2000/svg" xmlns:xlink="http://www.w3.org/1999/xlink" x="0px" y="0px"
	 viewBox="0 0 512 512" style="enable-background:new 0 0 512 512;" xml:space="preserve">
<g>
	<g>
		<g>
			<path d="M128,480c11.776,0,21.333-9.557,21.333-21.333s-9.557-21.333-21.333-21.333s-21.333,9.557-21.333,21.333
				S116.224,480,128,480z"/>
			<path d="M203.093,149.333h-0.213c-5.888,0-10.56,4.779-10.56,10.667s4.885,10.667,10.773,10.667S213.76,165.888,213.76,160
				S208.981,149.333,203.093,149.333z"/>
			<path d="M149.333,149.333h-42.667C100.779,149.333,96,154.112,96,160s4.779,10.667,10.667,10.667h42.667
				c5.888,0,10.667-4.779,10.667-10.667S155.221,149.333,149.333,149.333z"/>
			<path d="M298.667,458.667c0,11.776,9.557,21.333,21.333,21.333s21.333-9.557,21.333-21.333s-9.557-21.333-21.333-21.333
				S298.667,446.891,298.667,458.667z"/>
			<path d="M458.667,0H181.333C151.936,0,128,23.936,128,53.333v21.333c0,5.888,4.779,10.667,10.667,10.667
				s10.667-4.779,10.667-10.667V53.333c0-17.643,14.357-32,32-32h277.333c17.643,0,32,14.357,32,32v405.333
				c0,17.643-14.357,32-32,32H277.333c-5.888,0-10.667,4.779-10.667,10.667c0,5.888,4.779,10.667,10.667,10.667h181.333
				C488.064,512,512,488.064,512,458.667V53.333C512,23.936,488.064,0,458.667,0z"/>
			<path d="M202.667,106.667H53.333C23.936,106.667,0,130.603,0,160v298.667C0,488.064,23.936,512,53.333,512h149.333
				C232.064,512,256,488.064,256,458.667V160C256,130.603,232.064,106.667,202.667,106.667z M234.667,458.667
				c0,17.643-14.357,32-32,32H53.333c-17.643,0-32-14.357-32-32v-32h213.333V458.667z M234.667,405.333H21.333V160
				c0-17.643,14.357-32,32-32h149.333c17.643,0,32,14.357,32,32V405.333z"/>
			<path d="M469.333,416V53.333c0-5.888-4.779-10.667-10.667-10.667H181.333c-5.888,0-10.667,4.779-10.667,10.667v21.333
				c0,5.888,4.779,10.667,10.667,10.667S192,80.555,192,74.667V64h256v341.333H288c-5.888,0-10.667,4.779-10.667,10.667
				c0,5.888,4.779,10.667,10.667,10.667h170.667C464.555,426.667,469.333,421.888,469.333,416z"/>
		</g>
	</g>
</g>
<g>
</g>
<g>
</g>
<g>
</g>
<g>
</g>
<g>
</g>
<g>
</g>
<g>
</g>
<g>
</g>
<g>
</g>
<g>
</g>
<g>
</g>
<g>
</g>
<g>
</g>
<g>
</g>
<g>
</g>
</svg>
